<mxfile host="65bd71144e">
    <diagram id="Ew2gbE1YBZP5A4Nq3n5q" name="第 1 页">
        <mxGraphModel dx="2215" dy="555" grid="1" gridSize="10" guides="1" tooltips="1" connect="1" arrows="1" fold="1" page="1" pageScale="1" pageWidth="827" pageHeight="1169" math="0" shadow="0">
            <root>
                <mxCell id="0"/>
                <mxCell id="1" parent="0"/>
                <mxCell id="2" value="&lt;font color=&quot;#ff3333&quot; style=&quot;font-size: 25px&quot;&gt;&lt;b&gt;&lt;font style=&quot;font-size: 25px&quot;&gt;axi_master&lt;/font&gt;&lt;font style=&quot;font-size: 25px&quot;&gt;.h&lt;/font&gt;&lt;/b&gt;&lt;/font&gt;" style="text;html=1;strokeColor=none;fillColor=none;align=center;verticalAlign=middle;whiteSpace=wrap;rounded=0;" vertex="1" parent="1">
                    <mxGeometry x="-680" y="90" width="60" height="30" as="geometry"/>
                </mxCell>
                <mxCell id="3" value="&lt;b&gt;&lt;font style=&quot;font-size: 18px&quot;&gt;master组件的核心是do_cycle函数，包含一个无限循环用于生成读写事务、处理读写响应&lt;/font&gt;&lt;/b&gt;" style="text;html=1;strokeColor=none;fillColor=none;align=left;verticalAlign=middle;whiteSpace=wrap;rounded=0;fontSize=17;" vertex="1" parent="1">
                    <mxGeometry x="-720" y="280" width="250" height="10" as="geometry"/>
                </mxCell>
                <mxCell id="4" style="edgeStyle=none;html=1;exitX=0.5;exitY=1;exitDx=0;exitDy=0;entryX=0.5;entryY=0;entryDx=0;entryDy=0;fontSize=14;fontColor=#006600;" edge="1" parent="1" source="5" target="29">
                    <mxGeometry relative="1" as="geometry"/>
                </mxCell>
                <mxCell id="5" value="初始化数据" style="rounded=0;whiteSpace=wrap;html=1;fontSize=17;" vertex="1" parent="1">
                    <mxGeometry x="-370" y="300" width="160" height="80" as="geometry"/>
                </mxCell>
                <mxCell id="6" value="stop_gen信号是存放在sc_in端口中，&lt;br&gt;当不想再生成新的事务请求，&lt;br&gt;则可以给该端口输入信号" style="text;html=1;align=left;verticalAlign=middle;resizable=0;points=[];autosize=1;strokeColor=none;fillColor=none;fontSize=17;" vertex="1" parent="1">
                    <mxGeometry x="-130" y="490" width="300" height="70" as="geometry"/>
                </mxCell>
                <mxCell id="7" style="edgeStyle=none;html=1;exitX=0.5;exitY=1;exitDx=0;exitDy=0;entryX=0.5;entryY=0;entryDx=0;entryDy=0;fontSize=14;fontColor=#006600;" edge="1" parent="1" source="8" target="39">
                    <mxGeometry relative="1" as="geometry"/>
                </mxCell>
                <mxCell id="8" value="&lt;div style=&quot;color: rgb(51 , 51 , 51) ; background-color: rgb(245 , 245 , 245) ; font-family: &amp;#34;consolas&amp;#34; , &amp;#34;courier new&amp;#34; , monospace ; font-size: 16px ; line-height: 22px&quot;&gt;&lt;div style=&quot;font-family: &amp;#34;consolas&amp;#34; , &amp;#34;courier new&amp;#34; , monospace ; line-height: 22px&quot;&gt;&lt;span style=&quot;color: #7a3e9d&quot;&gt;ar_out&lt;/span&gt;&lt;span style=&quot;color: #777777&quot;&gt;.&lt;/span&gt;&lt;span style=&quot;color: #aa3731 ; font-weight: bold&quot;&gt;PushNB&lt;/span&gt;&lt;span style=&quot;color: #777777&quot;&gt;(&lt;/span&gt;tmp_ar&lt;span style=&quot;color: #777777&quot;&gt;)&lt;/span&gt;&lt;/div&gt;&lt;/div&gt;" style="rounded=0;whiteSpace=wrap;html=1;fontSize=17;" vertex="1" parent="1">
                    <mxGeometry x="-370" y="990" width="160" height="80" as="geometry"/>
                </mxCell>
                <mxCell id="9" value="用非阻塞方法尝试将&lt;span style=&quot;color: rgb(122 , 62 , 157) ; font-family: &amp;#34;consolas&amp;#34; , &amp;#34;courier new&amp;#34; , monospace ; font-size: 16px ; background-color: rgb(245 , 245 , 245)&quot;&gt;stored_rd_trans队列&lt;br&gt;第一个事务请求推送给&lt;/span&gt;&lt;span style=&quot;color: rgb(122 , 62 , 157) ; background-color: rgb(245 , 245 , 245) ; font-family: &amp;#34;consolas&amp;#34; , &amp;#34;courier new&amp;#34; , monospace ; font-size: 16px&quot;&gt;ar_out&lt;/span&gt;&lt;span style=&quot;background-color: rgb(245 , 245 , 245) ; color: rgb(122 , 62 , 157) ; font-family: &amp;#34;consolas&amp;#34; , &amp;#34;courier new&amp;#34; , monospace ; font-size: 16px&quot;&gt;端口，&lt;/span&gt;&lt;br&gt;&lt;span style=&quot;color: rgb(122 , 62 , 157) ; font-family: &amp;#34;consolas&amp;#34; , &amp;#34;courier new&amp;#34; , monospace ; font-size: 16px ; background-color: rgb(245 , 245 , 245)&quot;&gt;若推送成功，则将该事务从&lt;/span&gt;&lt;span style=&quot;color: rgb(122 , 62 , 157) ; font-family: &amp;#34;consolas&amp;#34; , &amp;#34;courier new&amp;#34; , monospace ; font-size: 16px ; background-color: rgb(245 , 245 , 245)&quot;&gt;stored_rd_trans队列中删除&lt;/span&gt;" style="text;html=1;align=left;verticalAlign=middle;resizable=0;points=[];autosize=1;strokeColor=none;fillColor=none;fontSize=17;" vertex="1" parent="1">
                    <mxGeometry x="-130" y="845" width="420" height="70" as="geometry"/>
                </mxCell>
                <mxCell id="10" value="&lt;span style=&quot;color: rgb(122 , 62 , 157) ; font-family: &amp;#34;consolas&amp;#34; , &amp;#34;courier new&amp;#34; , monospace ; font-size: 16px ; text-align: left ; background-color: rgb(245 , 245 , 245)&quot;&gt;stored_rd_trans队列用于存放上一步生成的读事务请求&lt;/span&gt;" style="text;html=1;align=center;verticalAlign=middle;resizable=0;points=[];autosize=1;strokeColor=none;fillColor=none;fontSize=17;" vertex="1" parent="1">
                    <mxGeometry x="-140" y="735" width="420" height="30" as="geometry"/>
                </mxCell>
                <mxCell id="11" style="edgeStyle=none;html=1;exitX=0.5;exitY=1;exitDx=0;exitDy=0;fontSize=14;fontColor=#006600;" edge="1" parent="1" source="12" target="42">
                    <mxGeometry relative="1" as="geometry"/>
                </mxCell>
                <mxCell id="12" value="&lt;div style=&quot;color: rgb(51 , 51 , 51) ; background-color: rgb(245 , 245 , 245) ; font-family: &amp;#34;consolas&amp;#34; , &amp;#34;courier new&amp;#34; , monospace ; font-size: 16px ; line-height: 22px&quot;&gt;&lt;div style=&quot;font-family: &amp;#34;consolas&amp;#34; , &amp;#34;courier new&amp;#34; , monospace ; line-height: 22px&quot;&gt;&lt;span style=&quot;color: #7a3e9d&quot;&gt;aw_out&lt;/span&gt;&lt;span style=&quot;color: #777777&quot;&gt;.&lt;/span&gt;&lt;span style=&quot;color: #aa3731 ; font-weight: bold&quot;&gt;PushNB&lt;/span&gt;&lt;span style=&quot;color: #777777&quot;&gt;(&lt;/span&gt;tmp_aw)&lt;/div&gt;&lt;/div&gt;" style="rounded=0;whiteSpace=wrap;html=1;fontSize=17;" vertex="1" parent="1">
                    <mxGeometry x="-370" y="1259" width="160" height="80" as="geometry"/>
                </mxCell>
                <mxCell id="13" value="&lt;span style=&quot;color: rgb(122 , 62 , 157) ; font-family: &amp;#34;consolas&amp;#34; , &amp;#34;courier new&amp;#34; , monospace ; font-size: 16px ; background-color: rgb(245 , 245 , 245)&quot;&gt;stored_wr_trans&lt;/span&gt;&lt;span style=&quot;color: rgb(122 , 62 , 157) ; font-family: &amp;#34;consolas&amp;#34; , &amp;#34;courier new&amp;#34; , monospace ; font-size: 16px ; text-align: left ; background-color: rgb(245 , 245 , 245)&quot;&gt;队列用于存放之前生成的写事务请求&lt;/span&gt;" style="text;html=1;align=center;verticalAlign=middle;resizable=0;points=[];autosize=1;strokeColor=none;fillColor=none;fontSize=17;" vertex="1" parent="1">
                    <mxGeometry x="-130" y="1010" width="400" height="30" as="geometry"/>
                </mxCell>
                <mxCell id="14" style="edgeStyle=none;html=1;exitX=0.5;exitY=1;exitDx=0;exitDy=0;entryX=0.5;entryY=0;entryDx=0;entryDy=0;fontSize=14;fontColor=#006600;" edge="1" parent="1" source="15">
                    <mxGeometry relative="1" as="geometry">
                        <mxPoint x="-290" y="1660" as="targetPoint"/>
                    </mxGeometry>
                </mxCell>
                <mxCell id="15" value="&lt;div style=&quot;color: rgb(51 , 51 , 51) ; background-color: rgb(245 , 245 , 245) ; font-family: &amp;#34;consolas&amp;#34; , &amp;#34;courier new&amp;#34; , monospace ; font-size: 16px ; line-height: 22px&quot;&gt;&lt;div style=&quot;font-family: &amp;#34;consolas&amp;#34; , &amp;#34;courier new&amp;#34; , monospace ; line-height: 22px&quot;&gt;&lt;div style=&quot;font-family: &amp;#34;consolas&amp;#34; , &amp;#34;courier new&amp;#34; , monospace ; line-height: 22px&quot;&gt;&lt;span style=&quot;color: #7a3e9d&quot;&gt;w_out&lt;/span&gt;&lt;span style=&quot;color: #777777&quot;&gt;.&lt;/span&gt;&lt;span style=&quot;color: #aa3731 ; font-weight: bold&quot;&gt;PushNB&lt;/span&gt;&lt;span style=&quot;color: #777777&quot;&gt;(&lt;/span&gt;tmp_w&lt;span style=&quot;color: #777777&quot;&gt;)&lt;/span&gt;&lt;/div&gt;&lt;/div&gt;&lt;/div&gt;" style="rounded=0;whiteSpace=wrap;html=1;fontSize=17;" vertex="1" parent="1">
                    <mxGeometry x="-370" y="1529" width="160" height="80" as="geometry"/>
                </mxCell>
                <mxCell id="16" style="edgeStyle=none;html=1;exitX=0.5;exitY=1;exitDx=0;exitDy=0;entryX=0.5;entryY=0;entryDx=0;entryDy=0;fontSize=14;fontColor=#006600;" edge="1" parent="1" target="18">
                    <mxGeometry relative="1" as="geometry">
                        <mxPoint x="-290" y="1740" as="sourcePoint"/>
                    </mxGeometry>
                </mxCell>
                <mxCell id="17" style="edgeStyle=none;html=1;exitX=0.5;exitY=1;exitDx=0;exitDy=0;entryX=0.5;entryY=0;entryDx=0;entryDy=0;fontSize=14;fontColor=#006600;" edge="1" parent="1" source="18">
                    <mxGeometry relative="1" as="geometry">
                        <mxPoint x="-290" y="1894" as="targetPoint"/>
                    </mxGeometry>
                </mxCell>
                <mxCell id="18" value="&lt;div style=&quot;background-color: rgb(245 , 245 , 245) ; font-family: &amp;#34;consolas&amp;#34; , &amp;#34;courier new&amp;#34; , monospace ; font-size: 16px ; line-height: 22px&quot;&gt;&lt;div style=&quot;font-family: &amp;#34;consolas&amp;#34; , &amp;#34;courier new&amp;#34; , monospace ; line-height: 22px&quot;&gt;&lt;div style=&quot;font-family: &amp;#34;consolas&amp;#34; , &amp;#34;courier new&amp;#34; , monospace ; line-height: 22px&quot;&gt;&lt;font color=&quot;#7a3e9d&quot;&gt;验证读响应&lt;/font&gt;&lt;/div&gt;&lt;/div&gt;&lt;/div&gt;" style="rounded=0;whiteSpace=wrap;html=1;fontSize=17;" vertex="1" parent="1">
                    <mxGeometry x="-370" y="1773.5" width="160" height="80" as="geometry"/>
                </mxCell>
                <mxCell id="19" style="edgeStyle=none;html=1;exitX=0.5;exitY=1;exitDx=0;exitDy=0;entryX=0.5;entryY=0;entryDx=0;entryDy=0;fontSize=14;fontColor=#006600;" edge="1" parent="1" target="21">
                    <mxGeometry relative="1" as="geometry">
                        <mxPoint x="-290" y="1974" as="sourcePoint"/>
                    </mxGeometry>
                </mxCell>
                <mxCell id="20" style="edgeStyle=none;html=1;exitX=0.5;exitY=1;exitDx=0;exitDy=0;entryX=0.5;entryY=0;entryDx=0;entryDy=0;fontSize=14;fontColor=#006600;" edge="1" parent="1" source="21" target="23">
                    <mxGeometry relative="1" as="geometry"/>
                </mxCell>
                <mxCell id="21" value="&lt;div style=&quot;background-color: rgb(245 , 245 , 245) ; font-family: &amp;#34;consolas&amp;#34; , &amp;#34;courier new&amp;#34; , monospace ; font-size: 16px ; line-height: 22px&quot;&gt;&lt;div style=&quot;font-family: &amp;#34;consolas&amp;#34; , &amp;#34;courier new&amp;#34; , monospace ; line-height: 22px&quot;&gt;&lt;div style=&quot;font-family: &amp;#34;consolas&amp;#34; , &amp;#34;courier new&amp;#34; , monospace ; line-height: 22px&quot;&gt;&lt;font color=&quot;#7a3e9d&quot;&gt;验证写响应&lt;/font&gt;&lt;/div&gt;&lt;/div&gt;&lt;/div&gt;" style="rounded=0;whiteSpace=wrap;html=1;fontSize=17;" vertex="1" parent="1">
                    <mxGeometry x="-370" y="2004" width="160" height="80" as="geometry"/>
                </mxCell>
                <mxCell id="22" style="edgeStyle=none;html=1;exitX=1;exitY=0.5;exitDx=0;exitDy=0;entryX=1;entryY=0.5;entryDx=0;entryDy=0;fontSize=14;fontColor=#006600;" edge="1" parent="1" source="23" target="29">
                    <mxGeometry relative="1" as="geometry">
                        <Array as="points">
                            <mxPoint x="350" y="2170"/>
                            <mxPoint x="350" y="475"/>
                        </Array>
                    </mxGeometry>
                </mxCell>
                <mxCell id="23" value="&lt;div style=&quot;background-color: rgb(245 , 245 , 245) ; font-family: &amp;#34;consolas&amp;#34; , &amp;#34;courier new&amp;#34; , monospace ; font-size: 16px ; line-height: 22px&quot;&gt;&lt;div style=&quot;font-family: &amp;#34;consolas&amp;#34; , &amp;#34;courier new&amp;#34; , monospace ; line-height: 22px&quot;&gt;&lt;div style=&quot;font-family: &amp;#34;consolas&amp;#34; , &amp;#34;courier new&amp;#34; , monospace ; line-height: 22px&quot;&gt;&lt;font color=&quot;#7a3e9d&quot;&gt;结束&lt;/font&gt;&lt;/div&gt;&lt;/div&gt;&lt;/div&gt;" style="rounded=0;whiteSpace=wrap;html=1;fontSize=17;" vertex="1" parent="1">
                    <mxGeometry x="-370" y="2130" width="160" height="80" as="geometry"/>
                </mxCell>
                <mxCell id="24" value="&lt;span style=&quot;color: rgb(0 , 0 , 0) ; font-family: &amp;#34;helvetica&amp;#34; ; font-size: 17px ; font-style: normal ; font-weight: 400 ; letter-spacing: normal ; text-align: center ; text-indent: 0px ; text-transform: none ; word-spacing: 0px ; background-color: rgb(248 , 249 , 250) ; display: inline ; float: none&quot;&gt;rnd_val_xx是一个随机数，&lt;br&gt;GEN_RATE_xx用于控制是否要生成读或写事务&lt;/span&gt;" style="text;whiteSpace=wrap;html=1;fontSize=17;" vertex="1" parent="1">
                    <mxGeometry x="-130" y="620" width="360" height="40" as="geometry"/>
                </mxCell>
                <mxCell id="25" style="edgeStyle=none;html=1;exitX=0.5;exitY=1;exitDx=0;exitDy=0;entryX=0.5;entryY=0;entryDx=0;entryDy=0;fontSize=14;fontColor=#006600;" edge="1" parent="1" source="26" target="36">
                    <mxGeometry relative="1" as="geometry"/>
                </mxCell>
                <mxCell id="26" value="&lt;div style=&quot;color: rgb(51 , 51 , 51) ; background-color: rgb(245 , 245 , 245) ; font-family: &amp;#34;consolas&amp;#34; , &amp;#34;courier new&amp;#34; , monospace ; font-size: 16px ; line-height: 22px&quot;&gt;&lt;div style=&quot;font-family: &amp;#34;consolas&amp;#34; , &amp;#34;courier new&amp;#34; , monospace ; line-height: 22px&quot;&gt;&lt;span style=&quot;color: #aa3731 ; font-weight: bold&quot;&gt;gen_new_rd_trans&lt;/span&gt;&lt;span style=&quot;color: #777777&quot;&gt;();&lt;/span&gt;&lt;/div&gt;&lt;/div&gt;" style="rounded=0;whiteSpace=wrap;html=1;fontSize=17;" vertex="1" parent="1">
                    <mxGeometry x="-370" y="710" width="160" height="80" as="geometry"/>
                </mxCell>
                <mxCell id="27" style="edgeStyle=none;html=1;exitX=0.5;exitY=1;exitDx=0;exitDy=0;entryX=0.5;entryY=0;entryDx=0;entryDy=0;fontSize=17;" edge="1" parent="1" source="29" target="31">
                    <mxGeometry relative="1" as="geometry"/>
                </mxCell>
                <mxCell id="28" style="edgeStyle=none;html=1;exitX=0;exitY=0.5;exitDx=0;exitDy=0;entryX=0;entryY=0.5;entryDx=0;entryDy=0;fontSize=14;fontColor=#006600;" edge="1" parent="1" source="29" target="36">
                    <mxGeometry relative="1" as="geometry">
                        <Array as="points">
                            <mxPoint x="-570" y="475"/>
                            <mxPoint x="-570" y="890"/>
                        </Array>
                    </mxGeometry>
                </mxCell>
                <mxCell id="29" value="&lt;span&gt;stop_gen.read()&lt;/span&gt;" style="rhombus;whiteSpace=wrap;html=1;fontSize=17;" vertex="1" parent="1">
                    <mxGeometry x="-370" y="435" width="160" height="80" as="geometry"/>
                </mxCell>
                <mxCell id="30" style="edgeStyle=none;html=1;exitX=0.5;exitY=1;exitDx=0;exitDy=0;entryX=0.5;entryY=0;entryDx=0;entryDy=0;fontSize=14;fontColor=#006600;" edge="1" parent="1" source="31" target="26">
                    <mxGeometry relative="1" as="geometry"/>
                </mxCell>
                <mxCell id="31" value="&lt;span style=&quot;color: rgb(51 , 51 , 51) ; font-family: &amp;#34;consolas&amp;#34; , &amp;#34;courier new&amp;#34; , monospace ; font-size: 16px ; background-color: rgb(245 , 245 , 245)&quot;&gt;rnd_val_xx&amp;nbsp;&lt;/span&gt;&lt;span style=&quot;font-family: &amp;#34;consolas&amp;#34; , &amp;#34;courier new&amp;#34; , monospace ; font-size: 16px ; color: rgb(119 , 119 , 119)&quot;&gt;&amp;lt;&lt;/span&gt;&lt;span style=&quot;color: rgb(51 , 51 , 51) ; font-family: &amp;#34;consolas&amp;#34; , &amp;#34;courier new&amp;#34; , monospace ; font-size: 16px ; background-color: rgb(245 , 245 , 245)&quot;&gt;&amp;nbsp;GEN_RATE_XX&lt;/span&gt;" style="rhombus;whiteSpace=wrap;html=1;fontSize=17;" vertex="1" parent="1">
                    <mxGeometry x="-370" y="580" width="160" height="80" as="geometry"/>
                </mxCell>
                <mxCell id="32" value="&lt;font style=&quot;font-size: 14px&quot; color=&quot;#006600&quot;&gt;读取失败&lt;/font&gt;" style="text;html=1;align=center;verticalAlign=middle;resizable=0;points=[];autosize=1;strokeColor=none;fillColor=none;fontSize=17;" vertex="1" parent="1">
                    <mxGeometry x="-285" y="535" width="70" height="30" as="geometry"/>
                </mxCell>
                <mxCell id="33" value="true" style="text;html=1;align=center;verticalAlign=middle;resizable=0;points=[];autosize=1;strokeColor=none;fillColor=none;fontSize=14;fontColor=#006600;" vertex="1" parent="1">
                    <mxGeometry x="-280" y="670" width="40" height="20" as="geometry"/>
                </mxCell>
                <mxCell id="34" style="edgeStyle=none;html=1;exitX=0.5;exitY=1;exitDx=0;exitDy=0;fontSize=14;fontColor=#006600;" edge="1" parent="1" source="36" target="8">
                    <mxGeometry relative="1" as="geometry"/>
                </mxCell>
                <mxCell id="35" style="edgeStyle=none;html=1;exitX=0;exitY=1;exitDx=0;exitDy=0;entryX=0;entryY=0.5;entryDx=0;entryDy=0;fontSize=14;fontColor=#006600;" edge="1" parent="1" source="36" target="39">
                    <mxGeometry relative="1" as="geometry">
                        <Array as="points">
                            <mxPoint x="-570" y="910"/>
                            <mxPoint x="-570" y="1160"/>
                        </Array>
                    </mxGeometry>
                </mxCell>
                <mxCell id="36" value="判断&lt;span style=&quot;color: rgb(122 , 62 , 157) ; background-color: rgb(245 , 245 , 245) ; font-family: &amp;#34;consolas&amp;#34; , &amp;#34;courier new&amp;#34; , monospace ; font-size: 16px&quot;&gt;stored_rd_trans是否为空&lt;/span&gt;" style="rhombus;whiteSpace=wrap;html=1;fontSize=17;" vertex="1" parent="1">
                    <mxGeometry x="-370" y="850" width="160" height="80" as="geometry"/>
                </mxCell>
                <mxCell id="37" style="edgeStyle=none;html=1;exitX=0.5;exitY=1;exitDx=0;exitDy=0;fontSize=14;fontColor=#006600;" edge="1" parent="1" source="39" target="12">
                    <mxGeometry relative="1" as="geometry"/>
                </mxCell>
                <mxCell id="38" style="edgeStyle=none;html=1;exitX=0;exitY=1;exitDx=0;exitDy=0;entryX=0;entryY=0.5;entryDx=0;entryDy=0;fontSize=14;fontColor=#006600;" edge="1" parent="1" source="39" target="42">
                    <mxGeometry relative="1" as="geometry">
                        <Array as="points">
                            <mxPoint x="-570" y="1180"/>
                            <mxPoint x="-570" y="1440"/>
                        </Array>
                    </mxGeometry>
                </mxCell>
                <mxCell id="39" value="判断&lt;span style=&quot;color: rgb(122 , 62 , 157) ; background-color: rgb(245 , 245 , 245) ; font-family: &amp;#34;consolas&amp;#34; , &amp;#34;courier new&amp;#34; , monospace ; font-size: 16px&quot;&gt;stored_wr_trans&lt;/span&gt;&lt;span style=&quot;background-color: rgb(245 , 245 , 245) ; color: rgb(122 , 62 , 157) ; font-family: &amp;#34;consolas&amp;#34; , &amp;#34;courier new&amp;#34; , monospace ; font-size: 16px&quot;&gt;是否为空&lt;/span&gt;" style="rhombus;whiteSpace=wrap;html=1;fontSize=17;" vertex="1" parent="1">
                    <mxGeometry x="-370" y="1120" width="160" height="80" as="geometry"/>
                </mxCell>
                <mxCell id="40" style="edgeStyle=none;html=1;exitX=0.5;exitY=1;exitDx=0;exitDy=0;entryX=0.5;entryY=0;entryDx=0;entryDy=0;fontSize=14;fontColor=#006600;" edge="1" parent="1" source="42" target="15">
                    <mxGeometry relative="1" as="geometry"/>
                </mxCell>
                <mxCell id="41" style="edgeStyle=none;html=1;exitX=0;exitY=1;exitDx=0;exitDy=0;entryX=0;entryY=0.5;entryDx=0;entryDy=0;fontSize=14;fontColor=#006600;" edge="1" parent="1" source="42" target="47">
                    <mxGeometry relative="1" as="geometry">
                        <Array as="points">
                            <mxPoint x="-570" y="1460"/>
                            <mxPoint x="-570" y="1700"/>
                        </Array>
                    </mxGeometry>
                </mxCell>
                <mxCell id="42" value="判断&lt;span style=&quot;color: rgb(122 , 62 , 157) ; background-color: rgb(245 , 245 , 245) ; font-family: &amp;#34;consolas&amp;#34; , &amp;#34;courier new&amp;#34; , monospace ; font-size: 16px&quot;&gt;stored_wr_data&lt;/span&gt;&lt;span style=&quot;background-color: rgb(245 , 245 , 245) ; color: rgb(122 , 62 , 157) ; font-family: &amp;#34;consolas&amp;#34; , &amp;#34;courier new&amp;#34; , monospace ; font-size: 16px&quot;&gt;是否为空&lt;/span&gt;" style="rhombus;whiteSpace=wrap;html=1;fontSize=17;" vertex="1" parent="1">
                    <mxGeometry x="-370" y="1400" width="160" height="80" as="geometry"/>
                </mxCell>
                <mxCell id="43" value="不为空" style="text;html=1;align=center;verticalAlign=middle;resizable=0;points=[];autosize=1;strokeColor=none;fillColor=none;fontSize=14;fontColor=#006600;" vertex="1" parent="1">
                    <mxGeometry x="-285" y="950" width="60" height="20" as="geometry"/>
                </mxCell>
                <mxCell id="44" value="不为空" style="text;html=1;align=center;verticalAlign=middle;resizable=0;points=[];autosize=1;strokeColor=none;fillColor=none;fontSize=14;fontColor=#006600;" vertex="1" parent="1">
                    <mxGeometry x="-280" y="1220" width="60" height="20" as="geometry"/>
                </mxCell>
                <mxCell id="45" value="不为空" style="text;html=1;align=center;verticalAlign=middle;resizable=0;points=[];autosize=1;strokeColor=none;fillColor=none;fontSize=14;fontColor=#006600;" vertex="1" parent="1">
                    <mxGeometry x="-290" y="1490" width="60" height="20" as="geometry"/>
                </mxCell>
                <mxCell id="46" style="edgeStyle=none;html=1;exitX=0;exitY=1;exitDx=0;exitDy=0;entryX=0;entryY=0.5;entryDx=0;entryDy=0;fontSize=14;fontColor=#006600;" edge="1" parent="1" source="47" target="49">
                    <mxGeometry relative="1" as="geometry">
                        <Array as="points">
                            <mxPoint x="-570" y="1720"/>
                            <mxPoint x="-570" y="1930"/>
                        </Array>
                    </mxGeometry>
                </mxCell>
                <mxCell id="47" value="&lt;span style=&quot;color: rgb(122 , 62 , 157) ; font-family: &amp;#34;consolas&amp;#34; , &amp;#34;courier new&amp;#34; , monospace ; font-size: 16px ; background-color: rgb(245 , 245 , 245)&quot;&gt;从r_in非阻塞中获取读响应&lt;/span&gt;" style="rhombus;whiteSpace=wrap;html=1;fontSize=17;" vertex="1" parent="1">
                    <mxGeometry x="-370" y="1660" width="160" height="80" as="geometry"/>
                </mxCell>
                <mxCell id="48" style="edgeStyle=none;html=1;exitX=0;exitY=1;exitDx=0;exitDy=0;entryX=0;entryY=0.5;entryDx=0;entryDy=0;fontSize=14;fontColor=#006600;" edge="1" parent="1" source="49" target="23">
                    <mxGeometry relative="1" as="geometry">
                        <Array as="points">
                            <mxPoint x="-570" y="1950"/>
                            <mxPoint x="-570" y="2170"/>
                        </Array>
                    </mxGeometry>
                </mxCell>
                <mxCell id="49" value="&lt;span style=&quot;color: rgb(122 , 62 , 157) ; font-family: &amp;#34;consolas&amp;#34; , &amp;#34;courier new&amp;#34; , monospace ; font-size: 16px ; background-color: rgb(245 , 245 , 245)&quot;&gt;从b_in非阻塞中获取写响应&lt;/span&gt;" style="rhombus;whiteSpace=wrap;html=1;fontSize=17;" vertex="1" parent="1">
                    <mxGeometry x="-370" y="1890" width="160" height="80" as="geometry"/>
                </mxCell>
                <mxCell id="50" value="获取成功" style="text;html=1;align=center;verticalAlign=middle;resizable=0;points=[];autosize=1;strokeColor=none;fillColor=none;fontSize=14;fontColor=#006600;" vertex="1" parent="1">
                    <mxGeometry x="-280" y="1740" width="70" height="20" as="geometry"/>
                </mxCell>
                <mxCell id="51" value="获取成功" style="text;html=1;align=center;verticalAlign=middle;resizable=0;points=[];autosize=1;strokeColor=none;fillColor=none;fontSize=14;fontColor=#006600;" vertex="1" parent="1">
                    <mxGeometry x="-270" y="1970" width="70" height="20" as="geometry"/>
                </mxCell>
                <mxCell id="52" value="&lt;font style=&quot;font-size: 14px&quot; color=&quot;#006600&quot;&gt;读取成功，说明不再产生新事务请求&lt;/font&gt;" style="text;html=1;align=center;verticalAlign=middle;resizable=0;points=[];autosize=1;strokeColor=none;fillColor=none;fontSize=17;" vertex="1" parent="1">
                    <mxGeometry x="-680" y="435" width="240" height="30" as="geometry"/>
                </mxCell>
                <mxCell id="53" value="为空" style="text;html=1;align=center;verticalAlign=middle;resizable=0;points=[];autosize=1;strokeColor=none;fillColor=none;fontSize=14;fontColor=#006600;" vertex="1" parent="1">
                    <mxGeometry x="-560" y="1020" width="40" height="20" as="geometry"/>
                </mxCell>
                <mxCell id="54" value="为空" style="text;html=1;align=center;verticalAlign=middle;resizable=0;points=[];autosize=1;strokeColor=none;fillColor=none;fontSize=14;fontColor=#006600;" vertex="1" parent="1">
                    <mxGeometry x="-560" y="1300" width="40" height="20" as="geometry"/>
                </mxCell>
                <mxCell id="55" value="为空" style="text;html=1;align=center;verticalAlign=middle;resizable=0;points=[];autosize=1;strokeColor=none;fillColor=none;fontSize=14;fontColor=#006600;" vertex="1" parent="1">
                    <mxGeometry x="-560" y="1580" width="40" height="20" as="geometry"/>
                </mxCell>
                <mxCell id="56" value="获取失败" style="text;html=1;align=center;verticalAlign=middle;resizable=0;points=[];autosize=1;strokeColor=none;fillColor=none;fontSize=14;fontColor=#006600;" vertex="1" parent="1">
                    <mxGeometry x="-560" y="1820" width="70" height="20" as="geometry"/>
                </mxCell>
                <mxCell id="57" value="获取失败" style="text;html=1;align=center;verticalAlign=middle;resizable=0;points=[];autosize=1;strokeColor=none;fillColor=none;fontSize=14;fontColor=#006600;" vertex="1" parent="1">
                    <mxGeometry x="-560" y="2050" width="70" height="20" as="geometry"/>
                </mxCell>
                <mxCell id="58" value="&lt;b&gt;&lt;font style=&quot;font-size: 18px&quot;&gt;生成读事务&lt;/font&gt;&lt;/b&gt;" style="text;html=1;strokeColor=none;fillColor=none;align=left;verticalAlign=middle;whiteSpace=wrap;rounded=0;fontSize=17;" vertex="1" parent="1">
                    <mxGeometry x="600" y="300" width="250" height="10" as="geometry"/>
                </mxCell>
                <mxCell id="59" value="构造读请求的&lt;span style=&quot;background-color: rgb(245 , 245 , 245) ; color: rgb(51 , 51 , 51) ; font-family: &amp;#34;consolas&amp;#34; , &amp;#34;courier new&amp;#34; , monospace ; font-size: 16px&quot;&gt;AddrPayload&lt;/span&gt;" style="rounded=0;whiteSpace=wrap;html=1;fontSize=17;" vertex="1" parent="1">
                    <mxGeometry x="920" y="330" width="160" height="80" as="geometry"/>
                </mxCell>
                <mxCell id="60" value="&lt;div&gt;&lt;font face=&quot;helvetica&quot;&gt;采用随机的方法给读请求结构填充各种传输属性，例如事务id，size，burst和len等&lt;/font&gt;&lt;/div&gt;" style="text;whiteSpace=wrap;html=1;fontSize=17;align=left;" vertex="1" parent="1">
                    <mxGeometry x="1170" y="350" width="330" height="40" as="geometry"/>
                </mxCell>
                <mxCell id="61" value="将构造完的读请求放入&lt;span style=&quot;color: rgb(122 , 62 , 157) ; background-color: rgb(245 , 245 , 245) ; font-family: &amp;#34;consolas&amp;#34; , &amp;#34;courier new&amp;#34; , monospace ; font-size: 16px&quot;&gt;stored_rd_trans队列中&lt;/span&gt;&lt;span style=&quot;color: rgba(0 , 0 , 0 , 0) ; font-family: monospace ; font-size: 0px&quot;&gt;%3CmxGraphModel%3E%3Croot%3E%3CmxCell%20id%3D%220%22%2F%3E%3CmxCell%20id%3D%221%22%20parent%3D%220%22%2F%3E%3CmxCell%20id%3D%222%22%20value%3D%22%E6%9E%84%E9%80%A0%E8%AF%BB%E8%AF%B7%E6%B1%82%E7%9A%84%26lt%3Bspan%20style%3D%26quot%3Bbackground-color%3A%20rgb(245%20%2C%20245%20%2C%20245)%20%3B%20color%3A%20rgb(51%20%2C%2051%20%2C%2051)%20%3B%20font-family%3A%20%26amp%3B%2334%3Bconsolas%26amp%3B%2334%3B%20%2C%20%26amp%3B%2334%3Bcourier%20new%26amp%3B%2334%3B%20%2C%20monospace%20%3B%20font-size%3A%2016px%26quot%3B%26gt%3BAddrPayload%26lt%3B%2Fspan%26gt%3B%22%20style%3D%22rounded%3D0%3BwhiteSpace%3Dwrap%3Bhtml%3D1%3BfontSize%3D17%3B%22%20vertex%3D%221%22%20parent%3D%221%22%3E%3CmxGeometry%20x%3D%22920%22%20y%3D%22330%22%20width%3D%22160%22%20height%3D%2280%22%20as%3D%22geometry%22%2F%3E%3C%2FmxCell%3E%3C%2Froot%3E%3C%2FmxGraphModel%3E&lt;/span&gt;" style="rounded=0;whiteSpace=wrap;html=1;fontSize=17;" vertex="1" parent="1">
                    <mxGeometry x="920" y="455" width="160" height="80" as="geometry"/>
                </mxCell>
            </root>
        </mxGraphModel>
    </diagram>
</mxfile>